<?xml version="1.0" standalone="no"?>
<!DOCTYPE svg PUBLIC "-//W3C//DTD SVG 20010904//EN"
 "http://www.w3.org/TR/2001/REC-SVG-20010904/DTD/svg10.dtd">
<svg version="1.0" xmlns="http://www.w3.org/2000/svg"
 width="700.000000pt" height="700.000000pt" viewBox="0 0 700.000000 700.000000"
 preserveAspectRatio="xMidYMid meet">
<metadata>
Created by potrace 1.11, written by Peter Selinger 2001-2013
</metadata>
<g transform="translate(0.000000,700.000000) scale(0.100000,-0.100000)"
fill="#000000" stroke="none">
<path d="M1291 6970 c-132 -43 -152 -69 -384 -480 -49 -87 -55 -214 -13 -305
31 -69 291 -512 325 -554 66 -83 122 -57 208 99 11 19 98 170 195 335 96 165
214 370 263 455 103 178 133 214 207 253 73 38 83 39 253 42 158 2 194 -6 215
-44 25 -48 45 -7 -352 -696 -86 -148 -212 -367 -280 -485 -68 -118 -321 -557
-562 -975 -241 -418 -447 -772 -457 -787 -10 -15 -19 -29 -19 -32 0 -3 -22
-43 -49 -88 -27 -46 -58 -99 -69 -118 -48 -85 -135 -235 -207 -360 -43 -74
-100 -173 -127 -220 -26 -47 -53 -92 -58 -100 -5 -8 -37 -64 -72 -125 -85
-148 -103 -178 -193 -333 -42 -74 -84 -155 -92 -180 -16 -54 -15 -138 3 -199
10 -33 515 -921 918 -1612 36 -62 66 -115 66 -116 0 -2 25 -45 55 -96 67 -115
110 -160 184 -196 l56 -28 1205 -3 c663 -1 1216 0 1228 3 36 9 72 53 72 88 0
21 -37 95 -116 232 -64 110 -127 216 -139 235 -12 19 -34 55 -48 80 -47 83
-108 136 -192 166 -46 16 -128 17 -1150 19 -1211 3 -1142 -1 -1245 65 -62 40
-92 82 -215 298 -108 191 -124 236 -119 331 4 66 22 112 86 223 219 379 398
688 417 722 13 22 132 228 264 456 132 228 245 424 251 435 6 11 41 71 76 133
36 62 81 140 101 175 19 34 94 163 165 287 169 292 908 1571 994 1720 37 63
78 135 92 160 14 25 44 77 66 115 61 106 74 227 33 320 -19 43 -288 508 -324
560 -42 61 -121 113 -197 131 -19 4 -313 8 -653 8 -532 1 -625 -1 -666 -14z"/>
<path d="M4361 6960 c-114 -41 -141 -74 -309 -365 -76 -132 -217 -377 -314
-545 -241 -419 -280 -485 -305 -528 -12 -20 -25 -44 -30 -52 -4 -8 -44 -79
-90 -158 -46 -79 -94 -162 -107 -185 -13 -23 -33 -58 -44 -77 -34 -56 -59
-112 -67 -149 -10 -49 -7 -138 6 -180 9 -27 236 -432 310 -551 5 -8 58 -100
117 -205 92 -160 282 -489 830 -1440 41 -71 84 -146 95 -165 10 -19 36 -64 57
-100 21 -36 47 -81 58 -100 58 -103 275 -478 286 -495 11 -18 22 -50 33 -95 5
-24 4 -113 -1 -138 -13 -62 11 -17 -438 -792 -304 -524 -305 -525 -313 -571
-10 -53 12 -67 71 -44 81 31 128 90 284 365 80 140 150 264 156 275 6 11 109
191 229 400 119 209 227 398 240 420 70 125 158 278 232 408 92 160 111 212
106 296 -3 71 -17 112 -63 191 -21 36 -48 83 -60 105 -26 47 -207 361 -360
625 -145 250 -483 837 -507 880 -16 29 -414 718 -638 1105 -171 296 -167 286
-172 375 -7 95 9 150 71 254 23 39 75 125 113 191 72 122 101 156 163 192 79
46 87 47 655 48 593 2 576 0 670 65 60 41 70 56 251 365 172 294 182 321 136
367 l-23 23 -637 2 c-609 2 -639 2 -691 -17z"/>
<path d="M4188 5644 c-32 -17 -48 -43 -48 -76 1 -26 6 -36 220 -405 85 -146
173 -300 196 -340 22 -40 46 -79 52 -85 7 -7 12 -16 12 -20 0 -5 16 -34 35
-64 19 -30 35 -56 35 -58 0 -3 89 -160 140 -246 61 -103 530 -913 567 -980
125 -222 328 -562 348 -580 32 -30 79 -29 112 2 13 12 38 47 55 78 45 78 555
965 578 1003 10 18 25 43 33 57 19 34 47 83 125 219 37 64 72 124 77 134 6 9
60 103 120 208 61 106 116 208 123 228 17 47 21 133 9 190 -12 60 -317 589
-372 646 -22 23 -67 54 -100 71 l-60 29 -1115 2 c-957 1 -1119 0 -1142 -13z
m2162 -169 c34 -17 50 -43 50 -78 0 -17 -315 -578 -409 -727 -5 -8 -33 -55
-61 -105 -62 -107 -83 -132 -121 -140 -36 -8 -83 19 -104 60 -9 16 -24 44 -34
60 -83 138 -448 778 -462 810 -24 55 -11 101 35 121 49 21 1065 20 1106 -1z"/>
<path d="M2690 4224 c-22 -14 -90 -124 -269 -438 -13 -22 -66 -115 -119 -206
-95 -165 -105 -183 -169 -295 -19 -33 -39 -69 -46 -80 -23 -38 -54 -91 -79
-135 -14 -25 -77 -136 -140 -245 -64 -110 -125 -216 -136 -235 -11 -19 -52
-91 -91 -158 -39 -68 -71 -127 -71 -131 0 -4 -5 -12 -12 -19 -6 -6 -28 -40
-47 -76 -20 -35 -83 -145 -141 -245 -58 -100 -109 -189 -115 -199 -5 -10 -45
-79 -88 -153 -91 -159 -98 -189 -57 -230 17 -17 40 -29 57 -30 162 -5 3101 -2
3137 3 28 4 58 16 70 27 41 42 30 68 -202 468 -120 208 -322 556 -447 773
-191 330 -308 532 -458 790 -11 19 -30 53 -42 75 -12 22 -36 63 -52 91 -17 27
-41 70 -55 95 -14 24 -64 109 -110 189 -47 80 -96 163 -108 185 -74 132 -96
164 -120 179 -35 20 -58 20 -90 0z m491 -1011 c13 -15 396 -673 504 -868 47
-86 31 -147 -44 -161 -20 -4 -266 -7 -546 -7 -448 0 -515 2 -542 16 -33 18
-43 34 -43 75 0 24 65 143 250 457 43 72 124 211 181 309 113 195 137 221 192
205 17 -5 39 -17 48 -26z"/>
</g>
</svg>
