<?xml version="1.0" encoding="UTF-8"?>
<svg width="428px" height="428px" viewBox="0 0 428 428" version="1.1" xmlns="http://www.w3.org/2000/svg" xmlns:xlink="http://www.w3.org/1999/xlink">
    <title>logo white</title>
    <g id="Page-1" stroke="none" stroke-width="1" fill="none" fill-rule="evenodd">
        <g id="desktop-transition" transform="translate(-509.000000, -282.000000)" fill="#FFFFFF">
            <g id="logo-white" transform="translate(509.480000, 282.900000)">
                <g>
                    <g id="Group" fill-rule="nonzero">
                        <path d="M212.877713,384.80248 C210.02053,379.793593 202.507199,375.490183 196.792835,375.490183 L66.2795729,375.490183 L66.2795729,375.137444 C60.2124699,375.137444 53.0518774,370.834034 49.8419566,365.825146 L37.3197382,344.025904 C34.462556,339.017017 34.462556,330.44547 37.3197382,325.083844 L190.33772,60.0713744 C193.194902,55.0624871 193.194902,46.4909404 190.33772,41.1293145 L171.748398,9.31229762 C168.891216,4.30341027 161.377885,-4.01017299e-14 155.310782,-4.01017299e-14 L83.4579401,-4.01017299e-14 C77.3908371,-4.01017299e-14 70.2302446,4.30341027 67.0203238,9.31229762 L54.4981054,31.1115398 C51.6409232,36.1204271 51.6409232,44.6919738 54.4981054,50.0535997 L73.0874268,81.8706166 C75.944609,86.879504 80.9534964,86.879504 83.8106786,81.8706166 L119.931106,19.647537 C122.788288,14.6386497 130.301619,10.3352394 136.368722,10.3352394 L149.949156,10.3352394 C156.016259,10.3352394 158.520703,14.6386497 155.310782,19.647537 L2.29280055,284.660007 C-0.564381674,289.668894 -0.564381674,298.240441 2.29280055,303.602067 L67.3730623,416.619497 C70.2302446,421.628384 77.7435756,425.931795 83.8106786,425.931795 L225.047193,425.931795 C231.114296,425.931795 234.35949,421.628384 231.467034,416.619497 L212.877713,384.80248 Z" id="Path"></path>
                        <path d="M161.413159,171.642577 L67.0203238,335.454358 C64.1631416,340.463245 66.3148467,344.766655 72.3819497,344.766655 L261.520358,344.766655 C267.587461,344.766655 270.091905,340.463245 266.881984,335.454358 L172.136411,171.642577 C169.279228,166.633689 164.270341,166.633689 161.413159,171.642577 Z M184.658629,232.454702 C187.515811,227.445815 192.524699,227.445815 195.381881,232.454702 L225.399931,284.660007 C228.257113,289.668894 226.105408,293.972305 220.038305,293.972305 L159.614192,293.972305 C153.547089,293.972305 151.042646,289.668894 154.252566,284.660007 L184.658629,232.454702 Z" id="Shape"></path>
                        <path d="M224.694454,100.495212 C221.837272,95.4863245 221.837272,86.9147778 224.694454,81.5531519 L237.216672,60.1066483 C240.073855,55.0977609 247.587186,50.7943507 253.654289,50.7943507 L314.078402,50.7943507 C320.145505,50.7943507 327.306097,46.4909404 330.516018,41.482053 L349.105339,9.66503617 C351.962522,4.65614881 349.810816,0.352738546 343.743713,0.352738546 L271.890872,0.352738546 C265.823769,0.352738546 258.663176,4.65614881 255.453255,9.66503617 L190.372993,122.682466 C187.515811,127.691354 187.515811,136.2629 190.372993,141.624526 L296.547296,325.789321 C299.404478,330.798209 299.404478,339.369755 296.547296,344.731381 L254.712504,416.972236 C251.855322,421.981123 250.797106,426.284533 254.007027,426.284533 C257.216948,426.284533 262.578574,423.074612 266.176507,416.972236 L330.90403,303.602067 C333.761213,298.593179 333.761213,290.021633 330.90403,284.660007 L224.694454,100.495212 Z" id="Path"></path>
                    </g>
                    <path d="M424.556114,122.294454 L405.966793,90.4774371 C403.109611,85.4685498 395.59628,81.1651395 389.529177,81.1651395 L259.368653,81.1651395 C253.30155,81.1651395 250.797106,85.4685498 254.007027,90.4774371 L348.752601,254.253944 C351.609783,259.262832 356.61867,259.262832 359.475853,254.253944 L424.556114,141.236514 C427.413297,136.227627 427.413297,127.65608 424.556114,122.294454 Z M389.529177,100.84795 L359.123114,153.053255 C356.265932,158.062143 351.257044,158.062143 348.399862,153.053255 L318.381812,100.84795 C315.52463,95.839063 317.676335,91.5356528 323.743438,91.5356528 L384.167551,91.5356528 C390.234654,91.5356528 392.739097,95.839063 389.529177,100.84795 Z" id="Shape" fill-rule="nonzero"></path>
                </g>
            </g>
        </g>
    </g>
</svg>