<?xml version="1.0" encoding="UTF-8"?>
<svg width="1440px" height="1024px" viewBox="0 0 1440 1024" version="1.1" xmlns="http://www.w3.org/2000/svg" xmlns:xlink="http://www.w3.org/1999/xlink">
    <title>Mask</title>
    <g id="Page-1" stroke="none" stroke-width="1" fill="none" fill-rule="evenodd">
        <g id="desktop-transition" fill="#70B62C" fill-rule="nonzero">
            <g id="landing-mai-_0003_Calque-9" transform="translate(1.000000, 0.000000)">
                <g id="Mask" transform="translate(-1.000000, 0.000000)">
                    <path d="M10.3705133,425.226318 L0,425.226318 L0,460.641268 L15.3794006,434.185877 C18.2365828,429.141715 16.0848777,425.226318 10.3705133,425.226318 Z" id="Path"></path>
                    <path d="M1323.6514,9.66503617 C1317.93703,9.66503617 1311.12918,5.71436445 1308.27199,0.740750947 L1307.91926,0.0352738546 L1261.78105,0.0352738546 L1279.31216,30.7940751 C1282.16934,35.8029625 1288.9772,39.7183603 1294.69156,39.7183603 L1439.49073,39.7183603 L1439.49073,9.66503617 L1323.6514,9.66503617 Z" id="Path"></path>
                    <path d="M62.9285567,70.0891492 C68.6429211,70.0891492 70.7946262,66.1384774 67.937444,61.1648639 L32.522494,0 L0,0 L0,4.65614881 L15.3794006,31.1115398 C18.2365828,36.1204271 16.0848777,40.035825 10.3705133,40.035825 L0,40.035825 L0,70.0891492 C0.352738546,70.0891492 1.05821564,70.0891492 1.44622804,70.0891492 C1.44622804,70.0891492 62.9285567,70.0891492 62.9285567,70.0891492 Z" id="Path"></path>
                    <path d="M1249.61157,81.5531519 L1230.66951,48.289907 C1228.16507,43.6337582 1223.50892,35.7676886 1220.65174,30.7588012 L1203.15591,0 L1167.77623,0 L1232.11574,111.923941 C1234.97292,116.58009 1234.97292,124.446159 1232.11574,129.455047 L1213.17368,162.718291 C1210.66924,167.727179 1206.01309,167.727179 1203.15591,162.718291 L1109.11581,0 L1074.08887,0 L1185.66008,193.477093 C1188.51726,198.133241 1188.51726,205.999311 1185.66008,211.008198 L1130.95033,304.695556 C1128.44588,309.704444 1123.78973,309.704444 1120.93255,304.695556 L1101.99049,271.432311 C1099.13331,266.776163 1099.13331,258.910093 1101.99049,253.901206 L1127.03493,210.620186 C1129.89211,205.964037 1129.89211,198.097968 1127.03493,193.08908 L1015.42845,0 L973.9464,0 C978.602549,1.44622804 983.258698,4.65614881 985.375129,8.21880813 L1068.69197,152.700517 C1071.54916,157.356666 1071.54916,165.222735 1068.69197,170.231622 L1026.15171,243.918705 C1023.29452,248.927592 1016.48667,252.84299 1010.7723,252.84299 L972.500172,252.84299 C967.138546,252.84299 964.634103,248.892318 967.491285,243.918705 L1010.38429,170.231622 C1013.24147,165.575474 1013.24147,157.709404 1010.38429,152.700517 L926.749983,8.21880813 C924.598278,4.26813641 925.303755,1.05821564 928.548949,0 L886.361419,0 L873.839201,21.4465036 C871.334757,26.1026524 866.678608,33.968722 863.821426,38.9776094 L862.375198,41.8347916 C859.518016,46.843679 852.710162,50.7590768 846.995797,50.7590768 L820.540406,50.7590768 C814.826042,50.7590768 808.018188,46.8084051 805.161006,41.8347916 L786.25422,8.57154668 C783.749776,4.26813641 785.196004,0.705477093 789.111402,0 L746.571133,0 L787.665174,71.5353772 C790.522356,76.5442646 797.33021,80.4596624 803.044575,80.4596624 L829.499966,80.4596624 C835.21433,80.4596624 840.928694,82.6113676 842.727661,85.4685498 C844.526628,88.325732 841.281433,90.4774371 835.567069,90.4774371 L835.567069,90.8301757 L750.486531,90.8301757 C744.772167,90.8301757 737.964313,86.879504 735.107131,81.9058905 L687.910713,0 L653.236514,0 L700.432931,81.5531519 C703.290114,86.5620393 702.937375,90.4774371 699.727454,90.4774371 C696.517534,90.4774371 691.508646,86.5267654 689.004203,82.258629 L641.067034,0 L606.040096,0 L653.236514,81.9058905 C656.093696,86.9147778 660.749845,94.7808474 663.254289,99.4369962 L705.794557,173.124079 C708.65174,178.132966 713.307888,185.999035 715.812332,190.655184 L746.923872,243.953979 C749.781054,248.962866 749.781054,256.828936 746.923872,261.485084 L727.981812,294.748329 C725.12463,299.757217 720.468481,299.757217 717.964037,294.748329 L552.423837,8.21880813 C550.977609,5.71436445 550.272132,2.85718223 550.272132,0 L514.892456,0 C514.892456,2.85718223 515.597933,5.71436445 517.044161,7.86606958 L653.271788,243.883431 C656.12897,248.892318 653.977265,252.807716 648.2629,252.807716 L609.63803,252.807716 C603.923665,252.807716 597.115811,248.857044 594.258629,243.883431 L481.629211,48.6073717 C478.772029,43.9512229 478.772029,36.0851533 481.629211,31.0762659 L499.477782,0 L137.638581,0 L149.808061,20.7410265 C152.665243,25.7499139 159.473097,29.6653117 165.187461,29.6653117 L437.642714,29.6653117 C443.00434,29.6653117 445.508784,33.6159835 442.651602,38.589597 L424.06228,71.8528419 C421.205098,76.8617292 414.397244,80.7771271 408.68288,80.7771271 L183.071306,80.7771271 C177.356941,80.7771271 170.549087,76.8264554 167.691905,71.8528419 L126.209852,0 L91.1829142,0 L103.352394,21.0937651 C106.209576,26.1026524 110.865725,33.968722 113.370169,38.6248708 L132.312229,71.8881157 C135.169411,76.8970031 132.664967,80.812401 127.303341,80.812401 L54.0042714,80.812401 C48.289907,80.812401 41.482053,84.7630727 38.6248708,89.7366862 L-1.87976859e-15,157.003927 L-1.87976859e-15,217.816052 C2.50444368,213.159904 6.067103,207.445539 8.21880813,203.494867 L56.1207027,119.437272 C58.9778849,114.428384 65.7857389,110.512987 71.5001033,110.512987 L109.772236,110.512987 C115.133862,110.512987 117.638305,114.463658 114.781123,119.437272 L89.7366862,162.718291 C87.2322425,167.37444 82.5760937,175.24051 79.7189115,180.249397 L66.491216,203.142129 C63.6340338,208.151016 65.7857389,212.066414 71.5001033,212.066414 L109.772236,212.066414 C115.4866,212.066414 121.200965,214.218119 122.999931,217.075301 C124.446159,219.932484 125.857113,222.084189 125.857113,222.084189 C125.857113,222.084189 128.008818,226.03486 130.866001,231.008474 L144.093696,253.901206 C146.950878,258.910093 149.102584,262.825491 149.102584,262.825491 C149.102584,262.825491 151.254289,266.776163 154.111471,271.749776 L218.838994,385.472683 C221.343438,390.481571 228.151292,394.396969 233.865656,394.396969 L367.200827,394.396969 C372.915191,394.396969 379.723045,398.34764 382.580227,403.321254 L402.227764,436.937237 C405.084947,441.946125 402.933241,445.861523 397.218877,445.861523 L253.513193,445.861523 C247.798829,445.861523 240.990975,441.910851 238.133793,436.937237 L143.035481,272.137788 C140.178298,267.128901 138.026593,263.213503 138.026593,263.213503 C138.026593,263.213503 133.723183,263.213503 128.008818,263.213503 L124.798898,263.213503 C119.084533,263.213503 110.124974,263.213503 104.41061,263.213503 L-1.87976859e-15,263.213503 L-1.87976859e-15,293.266827 L109.772236,293.266827 C115.4866,293.266827 122.294454,297.217499 125.151636,302.191113 L203.106855,436.655047 C205.964037,441.663934 203.812332,445.579332 198.097968,445.579332 L159.825835,445.579332 C154.111471,445.579332 147.303617,441.62866 144.446435,436.655047 L96.1918016,352.985463 C93.3346194,347.976576 86.5267654,344.061178 80.812401,344.061178 L-1.87976859e-15,344.061178 L-1.87976859e-15,374.467241 L51.4998278,374.467241 C56.8614537,374.467241 59.3658973,378.417913 56.5087151,383.391526 L25.7499139,436.655047 C22.8927317,441.311195 22.8927317,449.177265 25.7499139,454.186152 L91.1829142,568.614537 C94.0400965,573.270685 94.0400965,581.136755 91.1829142,586.145642 L72.2408543,619.408887 C69.7364106,624.417775 65.0802618,624.417775 62.2230796,619.408887 L-1.87976859e-15,511.753083 L-1.87976859e-15,572.177196 L91.5356528,730.592077 C94.392835,735.600965 94.392835,743.467034 91.5356528,748.123183 L48.9953841,821.810265 C46.1382019,826.819153 41.1293145,830.73455 37.9193937,830.73455 C34.709473,830.73455 34.3567344,826.783879 37.2139166,821.810265 L56.1559766,788.54702 C59.0131588,783.538133 59.0131588,775.672063 56.1559766,771.015915 L-1.87976859e-15,673.765897 L-1.87976859e-15,734.19001 L21.4465036,771.015915 C24.3036858,776.024802 24.3036858,783.890872 21.4465036,788.54702 L2.50444368,821.810265 C1.79896659,822.868481 1.05821564,823.96197 -1.87976859e-15,825.020186 L-1.87976859e-15,861.140613 L51.1118154,861.140613 C56.8261798,861.140613 63.6340338,857.189941 66.491216,852.216328 L208.433207,606.181192 C211.290389,601.172305 218.098243,597.256907 223.812608,597.256907 L262.08474,597.256907 C267.446366,597.256907 269.95081,601.207578 267.093627,606.181192 L113.334895,872.604616 C110.477713,877.613503 108.326008,881.528901 108.326008,881.528901 C108.326008,881.528901 106.174302,885.479573 103.31712,890.453186 L95.8037892,903.328143 C92.946607,908.337031 86.138753,912.252429 80.4243886,912.252429 L-1.87976859e-15,912.252429 L-1.87976859e-15,941.953014 L39.3303479,941.953014 C45.0447124,941.953014 50.7590768,944.104719 52.5580434,946.961901 C54.35701,949.819084 51.1118154,951.970789 45.3974509,951.970789 L-1.87976859e-15,951.970789 L-1.87976859e-15,982.376852 L62.5758181,982.376852 C68.2901826,982.376852 75.0980365,986.327523 77.9552187,991.301137 L96.5445401,1023.8589 L132.276955,1023.8589 L101.518154,970.56011 C98.6609714,965.903961 98.6609714,958.037892 101.518154,953.029004 L167.303893,838.953359 C170.161075,833.944471 176.968929,830.029073 182.683293,830.029073 L220.955425,830.029073 C226.317051,830.029073 228.821495,833.979745 225.964313,838.953359 L136.580365,993.80558 C133.723183,998.461729 133.723183,1006.3278 136.580365,1011.33669 L143.740958,1023.8589 L184.48226,1023.8589 C185.540475,1023.15343 186.633965,1022.80069 188.397658,1022.80069 L367.200827,1022.80069 C372.915191,1022.80069 378.629556,1020.64898 380.428522,1017.7918 C382.227489,1014.93462 381.133999,1008.86752 378.276817,1003.85863 L323.919807,909.818533 C321.062625,904.809645 321.062625,896.943576 323.919807,892.287427 L343.214606,859.729659 C346.071788,854.720772 350.727937,854.720772 353.23238,859.729659 L413.303755,963.78753 C416.160937,968.796417 416.160937,976.662487 413.303755,981.318636 L389.000069,1023.8589 L424.027007,1023.8589 L448.330692,981.318636 C451.187875,976.662487 451.187875,968.796417 448.330692,963.78753 L370.728212,829.323596 C367.87103,824.667447 367.87103,816.801378 370.728212,811.792491 L389.670272,778.529246 C392.174716,773.520358 396.830865,773.520358 399.688047,778.529246 L506.6031,963.78753 C509.460282,968.443679 509.460282,976.309749 506.6031,981.318636 L481.946676,1023.8589 L516.973614,1023.8589 L617.78629,849.323872 C620.643472,844.314984 625.299621,844.314984 627.804065,849.323872 L646.746125,882.587117 C649.603307,887.596004 649.603307,895.462074 646.746125,900.118223 L575.246021,1023.8589 L610.625698,1023.8589 L646.746125,961.283086 C649.603307,956.274199 656.411161,952.358801 662.125525,952.358801 L712.179125,952.358801 C717.540751,952.358801 720.045195,948.40813 717.188012,943.434516 L651.402274,829.35887 C648.545091,824.349983 650.696796,820.434585 656.411161,820.434585 L656.411161,820.081846 L694.295281,820.081846 C700.009645,820.081846 706.817499,824.032518 709.674681,829.006132 L781.527523,953.452291 C784.384705,958.461178 782.233,962.376576 776.518636,962.376576 L715.036307,962.376576 C709.321943,962.376576 702.514089,966.327248 699.656907,971.300861 L669.250844,1023.8589 L692.496314,1023.8589 L705.371271,1001.67165 C708.228453,996.662763 715.036307,992.747365 720.750672,992.747365 L759.022804,992.747365 C764.38443,992.747365 766.888874,996.698037 764.031691,1001.67165 L751.509473,1023.8589 L786.959697,1023.8589 L817.36576,971.300861 C820.222942,966.644712 820.222942,958.778643 817.36576,953.769755 L745.512918,829.323596 C742.655735,824.314709 744.807441,820.399311 750.521805,820.399311 L750.521805,820.399311 L788.405925,820.399311 C794.120289,820.399311 800.928143,824.349983 803.785326,829.323596 L875.638167,953.769755 C878.49535,958.425904 878.49535,966.291974 875.638167,971.300861 L845.232105,1023.8589 L880.259042,1023.8589 L904.915467,980.930623 C907.772649,975.921736 912.781536,972.006338 915.991457,972.006338 C919.201378,972.006338 919.554116,975.95701 916.696934,980.930623 L892.04051,1023.8589 L927.067447,1023.8589 L951.723872,981.318636 C954.581054,976.309749 961.388908,972.394351 967.103272,972.394351 L1005.3754,972.394351 C1010.73703,972.394351 1013.24147,976.345022 1010.38429,981.318636 L986.080606,1023.8589 L1020.75481,1023.8589 L1045.05849,981.318636 C1047.91567,976.309749 1054.72353,972.394351 1060.43789,972.394351 L1098.71002,972.394351 C1104.07165,972.394351 1106.57609,976.345022 1103.71891,981.318636 L1079.06249,1023.8589 L1114.08942,1023.8589 L1115.53565,1021.35446 C1118.39283,1016.34557 1125.20069,1012.43018 1130.91505,1012.43018 L1262.83927,1012.43018 C1268.55363,1012.43018 1277.51319,1012.43018 1283.22756,1012.43018 L1286.43748,1012.43018 C1292.15184,1012.43018 1298.9597,1016.38085 1301.81688,1021.35446 L1303.26311,1023.8589 L1338.29004,1023.8589 L1325.41509,1001.67165 C1322.55791,997.015501 1322.55791,989.149432 1325.41509,984.140544 L1344.35715,950.877299 C1346.86159,945.868412 1351.51774,945.868412 1354.37492,950.877299 L1367.60262,973.770031 C1370.10706,978.778918 1373.66972,984.846021 1375.46869,987.703204 C1376.91492,990.560386 1380.47757,996.627489 1383.33476,1001.63638 L1396.20971,1023.82363 L1431.9774,1023.82363 L1401.57134,971.265587 C1398.71416,966.2567 1401.2186,962.341302 1406.58023,962.341302 L1409.43741,962.341302 C1415.15177,962.341302 1424.11133,962.341302 1429.8257,962.341302 L1439.84347,962.341302 L1439.84347,932.287978 L1388.34364,932.287978 C1382.62928,932.287978 1375.82143,928.337306 1372.96424,923.363693 L1354.02218,890.100448 C1351.51774,885.09156 1346.86159,885.09156 1344.00441,890.100448 L1295.74978,973.770031 C1292.89259,978.778918 1287.88371,982.694316 1284.67379,982.694316 C1281.46386,982.694316 1281.11113,978.743645 1283.96831,973.770031 L1367.63789,828.582845 C1370.14234,823.573958 1374.79848,823.573958 1377.65567,828.582845 L1402.7001,871.863865 C1405.55729,876.872752 1412.36514,880.78815 1418.0795,880.78815 L1439.87875,880.78815 L1439.87875,850.805374 L1435.2226,850.805374 C1429.50823,850.805374 1422.70038,846.854702 1419.8432,841.881089 L1359.77182,737.823217 C1356.91464,732.81433 1359.41908,728.898932 1364.78071,728.898932 L1403.05284,728.898932 C1408.76721,728.898932 1415.57506,732.849604 1418.43224,737.823217 L1439.87875,775.00186 L1439.87875,683.818946 L1436.31609,689.886049 C1433.4589,694.894936 1426.65105,698.810334 1420.93669,698.810334 L1277.19573,698.810334 C1271.48136,698.810334 1264.67351,694.859662 1261.81633,689.886049 L1207.42404,595.810679 C1204.56686,590.801791 1206.71857,586.886393 1212.43293,586.886393 L1250.70506,586.886393 C1256.41943,586.886393 1263.22728,590.837065 1266.08446,595.810679 L1291.1289,639.091698 C1293.98608,644.100586 1300.79394,648.015983 1306.5083,648.015983 L1439.87875,648.015983 L1439.87875,617.257182 L1336.17361,617.257182 C1330.81199,617.257182 1328.30754,613.306511 1331.16473,608.332897 L1361.92353,555.034103 C1364.78071,550.377954 1364.78071,542.511884 1361.92353,537.502997 L1296.13779,423.427351 C1293.28061,418.771202 1293.28061,410.905133 1296.13779,405.896245 L1315.07985,372.633 C1317.58429,367.624113 1322.24044,367.624113 1325.09762,372.633 L1396.95047,497.079159 C1399.80765,501.735308 1399.80765,509.601378 1396.95047,514.610265 L1371.90603,557.891285 C1369.04885,562.900172 1371.20055,566.81557 1376.91492,566.81557 L1439.84347,566.81557 L1439.84347,511.012332 L1295.74978,261.379263 C1292.89259,256.370375 1292.89259,248.504306 1295.74978,243.848157 L1314.69184,210.584912 C1317.54902,205.576025 1322.20517,205.576025 1324.70961,210.584912 L1439.84347,409.776369 L1439.84347,348.682053 L1318.64251,139.472821 C1315.78533,134.463934 1308.97747,130.548536 1303.26311,130.548536 L1276.80772,130.548536 C1271.44609,130.548536 1267.88343,128.396831 1269.64712,125.539649 C1271.44609,122.682466 1277.16045,120.530761 1282.87482,120.530761 L1356.17389,120.530761 C1361.88825,120.530761 1368.69611,124.481433 1371.55329,129.455047 L1439.49073,247.128626 L1439.49073,171.67785 C1434.12911,170.972373 1428.062,167.37444 1425.55756,162.753565 L1406.6155,129.49032 C1403.75832,124.481433 1406.26276,120.566035 1411.62439,120.566035 L1439.52601,120.566035 L1439.52601,90.512711 L1265.02625,90.512711 C1259.27661,90.4774371 1252.46876,86.5620393 1249.61157,81.5531519 Z M1028.65615,283.249053 C1034.37051,283.249053 1041.17837,279.298381 1044.03555,274.324767 L1086.57582,200.637685 C1089.08026,195.981536 1092.64292,194.217844 1094.44189,197.075026 C1095.88812,199.932208 1095.14736,205.999311 1092.29018,211.008198 L1073.34812,244.271443 C1070.84368,248.927592 1066.18753,256.793662 1063.33035,261.802549 L1026.50444,325.471857 C1023.64726,330.480744 1016.83941,334.396142 1011.12504,334.396142 L879.200827,334.396142 C873.839201,334.396142 871.334757,330.44547 874.191939,325.471857 L893.133999,292.208612 C895.991182,287.199724 902.799035,283.284327 908.5134,283.284327 L1028.65615,283.284327 L1028.65615,283.249053 Z M1037.61571,650.167689 C1034.75853,654.823837 1034.75853,662.689907 1037.61571,667.698794 L1085.87034,751.368378 C1088.72752,756.024526 1088.72752,763.890596 1085.87034,768.899483 L1066.92828,802.162728 C1064.42384,806.818877 1060.86118,808.58257 1059.06221,805.725388 C1057.61598,802.868205 1054.05332,796.801102 1051.19614,791.792215 L1008.65587,718.105133 C1006.15143,713.096245 1002.58877,707.029142 1000.7898,704.17196 C999.343576,701.314778 1000.08433,695.247675 1002.94151,690.238787 L1104.1422,514.645539 C1106.64664,509.98939 1110.2093,508.225698 1112.00827,511.08288 C1113.4545,513.940062 1112.71374,520.007165 1109.85656,525.016052 L1037.61571,650.167689 Z M1126.99966,679.833 C1129.85684,684.489149 1129.85684,692.355219 1126.99966,697.364106 L1113.77196,720.256838 C1111.26752,725.265725 1106.61137,725.265725 1103.75419,720.256838 L1072.99538,666.958043 C1070.1382,662.301895 1070.1382,654.435825 1072.99538,649.426938 L1086.22308,626.534206 C1088.72752,621.525319 1093.38367,621.525319 1096.24085,626.534206 L1126.99966,679.833 Z M966.821082,707.381881 L1021.17809,801.421977 C1024.03527,806.430865 1023.68254,810.346262 1020.47261,810.346262 C1017.26269,810.346262 1012.25381,806.395591 1009.39662,801.421977 L961.141991,717.752394 C958.637547,713.096245 953.981399,705.230176 951.124216,700.221288 L932.182156,666.958043 C929.324974,662.301895 929.324974,654.435825 932.182156,649.426938 L1015.85174,504.945229 C1018.70892,499.936342 1025.51678,496.020944 1031.23114,496.020944 L1069.50327,496.020944 C1074.8649,496.020944 1077.36934,499.971616 1074.51216,504.945229 L966.891629,689.850775 C963.928626,694.506924 963.928626,702.372993 966.821082,707.381881 Z M980.754254,504.980503 L914.968515,619.056149 C912.111333,624.065036 905.303479,627.980434 899.589115,627.980434 L861.704995,627.980434 C855.99063,627.980434 853.838925,624.029762 856.696107,619.056149 L951.79442,454.186152 C954.651602,449.177265 959.307751,449.177265 961.812194,454.186152 L980.754254,487.449397 C983.611436,492.458285 983.611436,500.324354 980.754254,504.980503 Z M882.058009,658.033758 C887.772373,658.033758 894.580227,661.98443 897.43741,666.958043 L1027.59793,892.992904 C1030.45512,898.001791 1028.30341,901.917189 1022.58905,901.917189 L985.057664,901.917189 C979.3433,901.917189 972.535446,897.966517 969.678264,892.992904 L868.477575,718.105133 C865.620393,713.096245 858.812539,709.180847 853.098174,709.180847 L814.826042,709.180847 C809.464416,709.180847 806.959972,705.230176 809.817155,700.256562 L828.406476,666.993317 C831.263658,661.98443 838.071512,658.069032 843.785877,658.069032 L882.058009,658.033758 L882.058009,658.033758 Z M1087.66931,465.614881 L1037.61571,465.614881 C1031.90134,465.614881 1022.94178,465.614881 1017.22742,465.614881 L1014.0175,465.614881 C1008.30313,465.614881 1001.49528,461.664209 998.638099,456.690596 L949.995453,373.021013 C947.138271,368.012125 949.642714,364.096728 955.00434,364.096728 L993.276473,364.096728 C998.990837,364.096728 1005.79869,368.047399 1008.65587,373.021013 L1051.19614,446.708095 C1054.05332,451.716982 1060.86118,455.63238 1066.57554,455.63238 L1081.6022,455.63238 C1087.31657,455.63238 1093.03093,457.784085 1094.8299,460.641268 C1096.59359,463.49845 1093.03093,465.614881 1087.66931,465.614881 Z M977.191595,155.910437 C978.990561,158.76762 977.897072,164.834723 975.03989,169.84361 L932.499621,243.883431 C929.642439,248.892318 922.834585,252.807716 917.12022,252.807716 L797.33021,252.807716 C791.615846,252.807716 784.807992,248.857044 781.95081,243.883431 L763.00875,210.620186 C760.151567,205.611299 762.656011,201.695901 768.017637,201.695901 L935.004065,201.695901 C940.718429,201.695901 947.526283,197.745229 950.383465,192.771616 L969.325525,159.508371 C972.182708,154.499483 975.745367,153.053255 977.191595,155.910437 Z M735.107131,163.07103 L716.165071,129.807785 C713.307888,124.798898 715.459594,120.8835 721.173958,120.8835 L721.173958,121.236238 L888.513124,121.236238 C893.87475,121.236238 896.379194,117.285567 893.522012,112.311953 L880.294316,89.4192215 C877.437134,84.7630727 877.437134,76.8970031 880.294316,71.8881157 L899.236376,38.6248708 C901.74082,33.6159835 906.396969,33.6159835 909.254151,38.6248708 L951.79442,112.311953 C954.651602,116.968102 954.651602,124.834172 951.79442,129.843059 L932.85236,163.106304 C929.995177,168.115191 923.187323,172.030589 917.472959,172.030589 L750.486531,172.030589 C744.772167,172.030589 737.964313,168.079917 735.107131,163.07103 Z M135.874888,162.012814 C130.513262,162.012814 128.008818,158.062143 130.866001,153.088529 L149.808061,119.825284 C152.665243,114.816397 159.473097,110.900999 165.187461,110.900999 L472.669652,110.900999 C478.384017,110.900999 485.19187,114.851671 488.049053,119.825284 L518.807854,173.124079 C521.665036,177.780227 521.665036,185.646297 518.807854,190.655184 L499.513055,224.271168 C497.008612,229.280055 492.352463,229.280055 489.495281,224.271168 L458.73648,170.972373 C455.879297,165.963486 449.071443,162.048088 443.357079,162.048088 C443.357079,162.012814 135.874888,162.012814 135.874888,162.012814 Z M455.17382,243.177954 L276.370651,243.177954 C270.656287,243.177954 263.848433,239.227282 260.99125,234.253669 L242.04919,200.990424 C239.192008,195.981536 241.696452,192.066138 247.058078,192.066138 L425.825973,192.066138 C431.540338,192.066138 438.348192,196.01681 441.205374,200.990424 L460.147434,234.253669 C463.03989,239.262556 460.535446,243.177954 455.17382,243.177954 Z M349.669721,364.766931 L253.160455,364.766931 C247.44609,364.766931 240.638236,360.816259 237.781054,355.842646 L148.397106,200.990424 C145.539924,195.981536 148.044368,192.066138 153.405994,192.066138 L191.678126,192.066138 C197.392491,192.066138 204.200344,196.01681 207.057527,200.990424 L267.128901,305.048295 C269.986083,310.057182 276.793937,313.97258 282.508302,313.97258 L320.392422,313.97258 L320.392422,313.619842 C326.106786,313.619842 332.91464,317.570513 335.771822,322.544127 L354.713882,355.807372 C357.535791,360.851533 355.031347,364.766931 349.669721,364.766931 Z M382.932966,342.262212 C380.075784,337.606063 380.075784,329.739993 382.932966,324.731106 L401.875026,291.467861 C404.732208,286.458973 402.580503,282.543576 396.866138,282.543576 L299.96886,282.543576 C294.254495,282.543576 288.540131,280.39187 286.741164,277.534688 C284.942198,274.677506 288.187392,272.525801 293.901757,272.525801 L460.888185,272.525801 C466.249811,272.525801 468.754254,276.476473 465.897072,281.450086 L440.852635,324.731106 C437.995453,329.387255 437.995453,337.253324 440.852635,342.262212 L495.209645,436.302308 C498.066827,441.311195 495.915122,445.226593 490.200758,445.226593 L452.669377,445.226593 C446.955012,445.226593 440.147158,441.275921 437.289976,436.302308 L382.932966,342.262212 Z M270.656287,475.279917 L507.69659,475.279917 C513.410954,475.279917 520.218808,471.329246 523.07599,466.355632 L530.589321,453.480675 C533.446504,448.471788 533.446504,440.605718 530.589321,435.949569 L476.232311,341.909473 C473.375129,336.900586 473.375129,329.034516 476.232311,324.378367 L536.303686,221.025973 C539.160868,216.017086 543.817017,216.017086 546.321461,221.025973 L565.26352,254.289218 C568.120703,259.298105 568.120703,267.164175 565.26352,271.820324 L534.504719,325.119118 C531.647537,330.128006 531.647537,337.994075 534.504719,342.650224 L565.26352,395.949018 C568.120703,400.957906 568.120703,408.823975 565.26352,413.480124 L505.192146,517.537995 C502.334964,522.546883 495.52711,526.46228 489.812745,526.46228 L299.96886,526.46228 C294.254495,526.46228 287.446641,522.511609 284.589459,517.537995 L265.647399,484.27475 C262.790217,479.230589 265.294661,475.279917 270.656287,475.279917 Z M184.834998,586.145642 L119.049259,700.221288 C116.544816,705.230176 111.888667,705.230176 109.031485,700.221288 L90.0894247,666.958043 C87.2322425,662.301895 87.2322425,654.435825 90.0894247,649.426938 L126.915329,585.75763 C129.772511,581.101481 129.772511,573.235412 126.915329,568.226524 L119.401998,555.351567 C116.897554,550.695419 112.241405,542.829349 109.384223,537.820462 L61.1295901,454.150878 C58.2724079,449.49473 58.2724079,441.62866 61.1295901,436.619773 L80.07165,403.356528 C82.5760937,398.34764 87.2322425,398.34764 90.0894247,403.356528 L184.834998,568.614537 C187.727454,573.270685 187.727454,581.136755 184.834998,586.145642 Z M200.214399,800.363762 C194.500034,800.363762 192.348329,796.41309 195.205512,791.439476 L296.4062,616.198967 C299.263383,611.190079 303.919532,611.190079 306.423975,616.198967 L325.366035,649.462212 C328.223217,654.471099 328.223217,662.337168 325.366035,666.993317 L253.865932,791.439476 C251.00875,796.448364 244.200896,800.363762 238.486531,800.363762 L200.214399,800.363762 Z M371.856976,748.158457 L288.540131,892.640165 C285.682949,897.649053 285.682949,905.515122 288.540131,910.52401 L331.0804,983.82308 C333.937582,988.831967 331.785877,992.747365 326.071512,992.747365 L182.718567,992.747365 C177.356941,992.747365 173.794282,990.59566 175.557975,987.738477 C177.356941,984.881295 183.071306,982.72959 188.78567,982.72959 L261.379263,982.72959 C266.740889,982.72959 269.245332,978.778918 266.38815,973.805305 L229.914984,910.488736 C227.057802,905.479848 227.057802,897.613779 229.914984,892.604891 L342.544402,697.364106 C345.401585,692.355219 350.057733,692.355219 352.914916,697.364106 L371.856976,730.274612 C374.714158,735.2835 374.714158,743.149569 371.856976,748.158457 Z M478.031278,852.569066 L318.558181,576.127868 C315.700999,571.11898 308.893145,567.203583 303.178781,567.203583 L229.914984,567.203583 C224.20062,567.203583 217.392766,563.252911 214.535584,558.279297 L171.995315,484.592215 C169.138133,479.583328 171.289838,475.66793 177.004203,475.66793 L177.004203,475.315191 L214.888322,475.315191 C220.602687,475.315191 227.410541,479.265863 230.267723,484.239476 L267.093627,547.908784 C269.95081,552.917671 276.758663,556.833069 282.473028,556.833069 L355.419359,556.833069 C361.133724,556.833069 367.941578,560.783741 370.79876,565.757354 L507.026386,801.774716 C509.883569,806.430865 509.883569,814.296934 507.026386,819.305822 L488.084327,852.569066 C485.544609,857.577954 480.88846,857.577954 478.031278,852.569066 Z M600.678471,818.953083 L534.539993,933.381467 C532.035549,938.390355 527.379401,938.390355 524.522218,933.381467 L505.580158,900.118223 C502.722976,895.462074 502.722976,887.596004 505.580158,882.587117 L542.406063,818.917809 C545.263245,814.26166 545.263245,806.395591 542.406063,801.386703 L406.178436,565.369342 C403.321254,560.360455 405.472959,556.445057 411.187323,556.445057 L449.071443,556.445057 C454.785808,556.445057 461.593662,560.395729 464.450844,565.369342 L600.678471,801.386703 C603.535653,806.078126 603.535653,813.944196 600.678471,818.953083 Z M1046.89273,941.988288 L914.968515,941.988288 C909.254151,941.988288 902.446297,938.037616 899.589115,933.064003 L821.986635,798.600069 C819.129452,793.591182 812.321598,789.675784 806.607234,789.675784 L639.620806,789.675784 C633.906442,789.675784 627.098588,785.725112 624.241405,780.751498 L604.946607,748.193731 C602.089425,743.184843 604.593868,739.269445 609.955494,739.269445 L835.567069,739.269445 C841.281433,739.269445 848.089287,743.220117 850.946469,748.193731 L952.147158,923.081502 C955.00434,928.090389 961.812194,932.005787 967.526559,932.005787 L1040.82563,932.005787 C1046.53999,932.005787 1052.25436,934.157492 1054.05332,937.014674 C1055.85229,939.836583 1052.25436,941.988288 1046.89273,941.988288 Z M1337.93731,818.953083 L1248.55336,973.805305 C1245.69618,978.814192 1238.88832,982.72959 1233.17396,982.72959 L1194.90183,982.72959 C1189.18746,982.72959 1187.03576,978.778918 1189.89294,973.805305 L1279.27689,818.953083 C1282.13407,813.944196 1288.94192,810.028798 1294.65629,810.028798 L1332.92842,810.028798 C1338.64278,810.028798 1340.79449,813.944196 1337.93731,818.953083 Z M1247.84788,729.216397 L1309.33021,729.216397 C1315.04457,729.216397 1321.85243,733.167069 1324.70961,738.140682 L1343.29893,771.051188 C1346.15611,776.060076 1344.00441,779.975474 1338.29004,779.975474 L1276.80772,779.975474 C1271.09335,779.975474 1264.2855,783.926145 1261.42832,788.899759 L1160.22763,963.78753 C1157.72318,968.796417 1153.06703,968.796417 1150.20985,963.78753 L1131.26779,930.524285 C1128.41061,925.868136 1128.41061,918.002067 1131.26779,912.993179 L1232.46848,738.105408 C1235.32566,733.131795 1242.13352,729.216397 1247.84788,729.216397 Z M1207.77678,656.975543 L1221.00448,679.868274 C1223.86166,684.524423 1223.86166,692.390493 1221.00448,697.39938 L1114.83018,882.304926 C1111.97299,887.313813 1105.16514,891.229211 1099.45078,891.229211 L1084.42411,891.229211 C1079.06249,891.229211 1076.55804,895.179883 1079.41523,900.153496 L1098.35729,933.416741 C1101.21447,938.425629 1100.86173,942.341027 1097.65181,942.341027 C1094.44189,942.341027 1089.433,938.390355 1086.57582,933.416741 L1038.32118,849.747158 C1035.464,844.738271 1037.61571,840.822873 1043.33007,840.822873 L1069.78546,840.822873 C1075.49983,840.822873 1082.30768,836.872201 1085.16486,831.898588 L1162.76734,697.434654 C1165.62453,692.778505 1165.62453,684.912435 1162.76734,679.903548 L1114.51271,596.233965 C1111.65553,591.577816 1111.65553,583.711746 1114.51271,578.702859 L1133.45477,545.439614 C1135.95921,540.430727 1140.61536,540.430727 1143.47255,545.439614 L1197.82956,639.479711 C1200.29873,644.100586 1204.9196,651.966655 1207.77678,656.975543 Z M1233.5267,556.833069 L1233.5267,556.480331 L1195.99532,556.480331 C1190.28095,556.480331 1183.4731,552.529659 1180.61591,547.556045 L1114.83018,433.4804 C1111.97299,428.471512 1105.16514,424.556114 1099.45078,424.556114 L1084.42411,424.556114 C1078.70975,424.556114 1071.90189,420.605443 1069.04471,415.631829 L1044.00028,372.35081 C1041.14309,367.694661 1041.14309,359.828591 1044.00028,354.819704 L1074.75908,301.520909 C1077.26352,296.512022 1081.91967,296.512022 1084.77685,301.520909 L1103.71891,334.784154 C1106.57609,339.440303 1106.57609,347.306373 1103.71891,352.31526 L1078.67447,395.59628 C1075.81729,400.605167 1074.75908,406.67227 1076.52277,409.529452 C1078.32174,412.386635 1084.0361,414.53834 1089.75047,414.53834 L1151.23279,414.53834 C1156.94716,414.53834 1163.75501,418.489011 1166.61219,423.462625 L1238.46504,547.908784 C1241.39277,552.882398 1239.24106,556.833069 1233.5267,556.833069 Z M1297.196,325.083844 C1300.05319,329.739993 1300.05319,337.606063 1297.196,342.61495 L1260.33483,406.248984 C1257.47764,410.905133 1257.47764,418.771202 1260.33483,423.78009 L1267.84816,436.655047 C1270.3526,441.311195 1275.00875,449.177265 1277.86593,454.186152 L1325.76783,537.855735 C1328.62501,542.511884 1328.62501,550.377954 1325.76783,555.386841 L1306.82577,588.650086 C1304.32132,593.658973 1299.66517,593.658973 1296.80799,588.650086 L1202.41516,423.427351 C1199.55797,418.771202 1199.55797,410.905133 1202.41516,405.896245 L1268.2009,291.820599 C1270.70534,286.811712 1275.36149,286.811712 1278.21867,291.820599 L1297.196,325.083844 Z M1298.25422,161.307337 C1303.61585,161.307337 1306.12029,165.258009 1303.26311,170.231622 L1184.56659,375.878195 C1181.7094,380.887082 1174.90155,384.80248 1169.18719,384.80248 L1130.56231,384.80248 C1125.20069,384.80248 1122.69625,380.851808 1125.55343,375.878195 L1244.60269,170.231622 C1247.45987,165.222735 1254.26772,161.307337 1259.98209,161.307337 L1298.25422,161.307337 Z" id="Shape"></path>
                </g>
            </g>
        </g>
    </g>
</svg>
